<svg width="330" height="260" xmlns="http://www.w3.org/2000/svg">

 <g>
  <title>background</title>
  <rect fill="none" id="canvas_background" height="402" width="582" y="-1" x="-1"/>
 </g>
 <g>
  <title>Layer 1</title>
  <path id="svg_12" d="m93.870968,113.225806l53.548387,-0.645162l19.032258,-49.677419l18.064516,50l54.83871,0.322581l-43.225806,32.580645l15.483871,47.741935l-45.483871,-27.096774l-45.806452,28.387097l14.193548,-49.032258l-40.645161,-32.580645z" fill-opacity="null" stroke-opacity="null" stroke-width="1.5" stroke="#ffffff" fill="#fff"/>
  <g id="svg_1">
   <path id="svg_2" d="m320.461,132.882c1.426,0.744 1.096,2.236 1.183,3.356c0.985,12.471 0.673,24.854 -3.479,36.829c-2.939,8.478 -7.785,15.541 -15.643,20.287c-3.924,2.371 -8.323,3.157 -12.672,4.132c-4.877,1.095 -9.745,2.27 -14.666,3.125c-12.606,2.191 -25.117,4.864 -37.692,7.208c-14.734,2.747 -29.45,5.598 -44.179,8.367c-13.297,2.499 -26.602,4.959 -39.907,7.413c-13.16,2.427 -26.318,4.858 -39.489,7.227c-14.562,2.62 -29.13,5.197 -43.706,7.743c-9.542,1.667 -19.097,3.256 -28.649,4.852c-2.208,0.369 -4.441,0.596 -6.652,0.947c-1.806,0.287 -3.222,-0.321 -4.462,-1.605c-2.953,-3.058 -5.015,-6.714 -6.903,-10.451c-6.398,-12.668 -11.164,-25.913 -13.684,-39.911c-0.718,-3.991 -1.047,-8.02 -0.413,-12.071c0.468,-2.988 1.86,-5.059 4.981,-5.954c6.473,-1.856 13.071,-3.101 19.68,-4.289c18.161,-3.261 36.425,-5.875 54.693,-8.458c14.32,-2.025 28.66,-3.9 42.992,-5.841c2.21,-0.3 2.227,-0.294 1.527,1.833c-3.567,10.844 -7.143,21.685 -10.716,32.527c-0.073,0.224 -0.13,0.454 -0.197,0.684c0.438,0.254 0.616,-0.244 0.936,-0.222c0.74,1.303 0.733,1.293 2.042,0.464c11.11,-7.047 22.173,-14.167 33.308,-21.177c2.103,-1.324 4.23,-2.609 6.306,-3.973c1.054,-0.692 2.056,-0.753 3.138,-0.088c4.232,2.603 8.412,5.292 12.622,7.93c6.813,4.27 13.547,8.663 20.388,12.887c2.32,1.434 4.586,2.957 6.913,4.378c0.492,0.301 0.995,0.811 1.345,-0.146c0.407,-0.547 -0.049,-1.006 -0.197,-1.461c-4.496,-13.876 -9.013,-27.747 -13.526,-41.618c0.371,-0.541 0.937,-0.635 1.533,-0.708c13.447,-1.636 26.886,-3.355 40.345,-4.892c15.493,-1.769 30.969,-3.672 46.463,-5.427c10.458,-1.184 20.912,-2.413 31.365,-3.645c1.674,-0.195 3.36,-0.614 5.072,-0.252z" fill="#FEE11B" clip-rule="evenodd" fill-rule="evenodd"/>
   <path id="svg_3" d="m175.218,91.378c-2.953,-7.789 -5.906,-15.579 -8.972,-23.665c-1.813,4.747 -3.506,9.204 -5.217,13.653c-0.748,1.943 -1.535,3.873 -2.304,5.809c-0.79,0.391 -1.536,0.015 -2.271,-0.176c-9.529,-2.481 -19.089,-4.842 -28.659,-7.165c-9.331,-2.265 -18.695,-4.397 -28.035,-6.624c-15.884,-3.787 -31.815,-7.371 -47.725,-11.047c-11.256,-2.602 -22.53,-5.121 -33.81,-7.617c-1.143,-0.253 -2.285,-0.512 -3.407,-0.842c-0.516,-0.152 -1.207,-0.178 -1.203,-0.994c9.728,-1.378 19.458,-2.746 29.184,-4.138c7.885,-1.128 15.764,-2.309 23.651,-3.421c9.333,-1.316 18.675,-2.572 28.01,-3.875c11.574,-1.617 23.146,-3.265 34.72,-4.884c10.802,-1.511 21.607,-3.001 32.41,-4.503c11.479,-1.596 22.956,-3.203 34.437,-4.791c10.42,-1.44 20.843,-2.869 31.266,-4.289c11.243,-1.532 22.481,-3.086 33.731,-4.555c8.839,-1.153 17.698,-2.148 26.535,-3.309c2.229,-0.294 3.738,0.689 5.132,2.149c3.113,3.257 5.685,6.93 8.1,10.71c7.59,11.873 14.313,24.199 19.361,37.388c0.695,1.816 1.274,3.675 1.668,5.586c0.41,1.978 0.231,2.438 -1.598,3.328c-2.912,1.416 -6.053,2.144 -9.188,2.829c-11.524,2.519 -23.197,4.139 -34.89,5.597c-10.587,1.32 -21.184,2.563 -31.791,3.717c-10.073,1.095 -20.159,2.072 -30.247,3.027c-10.96,1.04 -21.929,1.994 -32.892,2.994c-0.436,0.04 -0.862,0.159 -1.294,0.24c-1.771,0.475 -3.235,-0.335 -4.702,-1.132z" fill="#20439C" clip-rule="evenodd" fill-rule="evenodd"/>
   <path id="svg_4" d="m13.615,52.708c1.768,1.088 3.828,1.231 5.771,1.675c18.66,4.262 37.355,8.365 56.001,12.691c26.284,6.098 52.59,12.11 78.702,18.921c1.543,0.403 3.089,0.786 4.635,1.179c-1.055,3.478 -2.524,6.804 -3.812,10.195c-1.945,5.118 -3.943,10.216 -5.878,15.338c-0.32,0.843 -0.742,1.162 -1.685,1.179c-9.596,0.174 -19.191,0.396 -28.785,0.624c-7.593,0.181 -15.185,0.387 -22.974,0.587c0.75,0.609 1.394,1.13 2.037,1.651c-0.142,0.811 0.344,1.245 0.937,1.657c5.845,4.064 11.704,8.107 17.537,12.187c7.071,4.944 14.201,9.803 21.191,14.861c-0.715,2.446 -0.714,2.442 -3.219,1.795c-23.779,-6.148 -47.529,-12.412 -71.231,-18.853c-13.516,-3.672 -26.99,-7.5 -40.51,-11.159c-3.03,-0.82 -5.332,-2.534 -7.278,-4.835c-3.427,-4.05 -5.179,-8.873 -6.161,-13.999c-1.399,-7.291 -1.143,-14.612 -0.4,-21.963c0.778,-7.699 2.36,-15.224 4.408,-22.667c0.118,-0.427 -0.035,-1.054 0.714,-1.064z" fill="#18AC4B" clip-rule="evenodd" fill-rule="evenodd"/>
   <path id="svg_5" d="m175.218,91.378c1.569,0.378 3.137,0.755 4.705,1.132c5.255,1.407 10.509,2.817 15.766,4.221c15.367,4.106 30.746,8.174 46.102,12.323c23.209,6.271 46.413,12.569 69.275,20.042c3.211,1.049 6.467,2.021 9.395,3.787c-2.123,0.556 -4.318,0.586 -6.479,0.87c-3.896,0.512 -7.808,0.928 -11.711,1.38c-3.664,0.424 -7.329,0.837 -10.993,1.266c-4.724,0.553 -9.444,1.126 -14.169,1.671c-3.76,0.435 -7.525,0.822 -11.285,1.261c-3.755,0.44 -7.504,0.935 -11.259,1.377c-3.707,0.436 -7.42,0.824 -11.126,1.255c-5.31,0.618 -10.617,1.249 -15.922,1.888c-5.212,0.628 -10.421,1.275 -15.631,1.912c-4.344,0.53 -8.688,1.052 -13.031,1.588c-1.06,0.131 -2.114,0.304 -3.17,0.458c-0.146,-0.477 -0.29,-0.956 -0.435,-1.433c0.297,-0.833 0.988,-1.312 1.657,-1.789c10.025,-7.135 20.148,-14.129 30.248,-21.157c2.515,-1.75 5.018,-3.518 7.529,-5.273c0.852,-0.595 1.105,-1.15 0.354,-1.963c0.516,-0.421 1.028,-0.841 1.88,-1.538c-2.397,0 -4.457,0.024 -6.514,-0.004c-5.938,-0.085 -11.877,-0.184 -17.816,-0.291c-9.148,-0.164 -18.297,-0.348 -27.446,-0.499c-0.995,-0.016 -1.507,-0.337 -1.883,-1.344c-2.634,-7.064 -5.351,-14.097 -8.041,-21.14z" fill="#18AC4B" clip-rule="evenodd" fill-rule="evenodd"/>
   <path id="svg_6" d="m209.405,190.888c0.157,0.288 0.776,0.476 0.239,0.918c-0.39,0.32 -0.805,0.234 -1.213,-0.027c-3.477,-2.219 -6.952,-4.439 -10.438,-6.644c-6.281,-3.974 -12.569,-7.937 -18.853,-11.904c-3.776,-2.384 -7.561,-4.756 -11.322,-7.163c-0.853,-0.545 -1.576,-0.508 -2.417,0.028c-9.302,5.926 -18.618,11.829 -27.928,17.741c-4.099,2.603 -8.188,5.22 -12.298,7.804c-0.42,0.264 -0.798,0.854 -1.412,0.544c-0.677,-0.343 -0.407,-1.013 -0.419,-1.573c9.135,-5.849 18.265,-11.705 27.408,-17.541c4.673,-2.983 9.374,-5.923 14.052,-8.899c0.731,-0.465 1.323,-0.761 2.229,-0.183c14.108,8.991 28.243,17.941 42.372,26.899z" fill="#B4A032" clip-rule="evenodd" fill-rule="evenodd"/>
   <path id="svg_7" d="m235.037,116.193c1.493,0.736 1.539,1.052 0.187,1.998c-5.964,4.175 -11.945,8.327 -17.912,12.499c-6.803,4.755 -13.602,9.518 -20.393,14.289c-0.591,0.417 -1.116,0.928 -1.671,1.396c-0.868,-1.379 -0.443,-2.223 0.887,-3.146c12.514,-8.675 24.972,-17.425 37.464,-26.131c0.458,-0.319 0.787,-0.881 1.438,-0.905z" fill="#14793D" clip-rule="evenodd" fill-rule="evenodd"/>
   <path id="svg_8" d="m137.292,145.453c-1.551,-0.192 -2.51,-1.413 -3.681,-2.214c-6.136,-4.194 -12.201,-8.492 -18.298,-12.74c-5.78,-4.028 -11.58,-8.027 -17.34,-12.082c-0.486,-0.343 -1.694,-0.821 -0.345,-1.668c4.564,3.13 9.145,6.235 13.689,9.394c8.42,5.852 16.818,11.735 25.225,17.604c0.596,0.417 1.299,0.786 0.75,1.706z" fill="#178140" clip-rule="evenodd" fill-rule="evenodd"/>
  </g>
 </g>
</svg>